<svg width="218" height="217" viewBox="0 0 218 217" fill="none" xmlns="http://www.w3.org/2000/svg">
<path d="M109 0L124.022 28.642L148.375 7.36053L152.036 39.4948L182.433 28.448L174.238 59.7346L206.573 60.4145L187.629 86.6281L217.535 98.9427L190.401 116.543L213.839 138.829L182.18 145.439L195.984 174.687L164.075 169.414L166.381 201.674L138.532 185.23L129.029 216.144L109 190.75L88.9713 216.144L79.4685 185.23L51.6189 201.674L53.9254 169.414L22.0161 174.687L35.8204 145.439L4.161 138.829L27.5987 116.543L0.464973 98.9427L30.3708 86.6281L11.4272 60.4145L43.7621 59.7346L35.5672 28.448L65.9642 39.4948L69.6247 7.36053L93.9785 28.642L109 0Z" fill="#519181"/>
</svg>
