<svg xmlns="http://www.w3.org/2000/svg" xmlns:xlink="http://www.w3.org/1999/xlink" width="1920" zoomAndPan="magnify" viewBox="0 0 1440 809.999993" height="1080" preserveAspectRatio="xMidYMid meet" version="1.0"><defs><clipPath id="43e3af64a1"><path d="M 492 205 L 938 205 L 938 740.835938 L 492 740.835938 Z M 492 205 " clip-rule="nonzero"/></clipPath><clipPath id="512dcc81f3"><path d="M 524 411 L 886 411 L 886 740.835938 L 524 740.835938 Z M 524 411 " clip-rule="nonzero"/></clipPath><clipPath id="2eef1cc8bf"><path d="M 480.40625 155 L 941 155 L 941 407 L 480.40625 407 Z M 480.40625 155 " clip-rule="nonzero"/></clipPath><clipPath id="26bd15ab0b"><path d="M 577.171875 537.039062 L 837.421875 537.039062 L 837.421875 740.835938 L 577.171875 740.835938 Z M 577.171875 537.039062 " clip-rule="nonzero"/></clipPath><clipPath id="56b822bcea"><path d="M 577.171875 537.039062 L 837.421875 537.039062 L 837.421875 740 L 577.171875 740 Z M 577.171875 537.039062 " clip-rule="nonzero"/></clipPath></defs><g clip-path="url(#43e3af64a1)"><path fill="#f9f4ef" d="M 576.875 219.152344 L 795.140625 205.09375 C 795.140625 205.09375 918.632812 317.949219 931.976562 329.957031 C 945.320312 341.96875 930.644531 361.339844 923.960938 377.347656 C 917.28125 393.355469 885.878906 394.347656 885.878906 394.347656 C 885.878906 394.347656 887.359375 405.28125 879.640625 420.695312 C 874.269531 431.417969 860.820312 444.464844 854.539062 456.769531 C 839.1875 486.820312 824.152344 499.695312 736.503906 525.515625 C 648.855469 551.335938 572.855469 460.089844 572.855469 460.089844 L 542.511719 406.105469 C 542.511719 406.105469 560.191406 402.679688 520.605469 394.6875 C 481.019531 386.691406 493.433594 341.292969 500.792969 326.933594 C 508.148438 312.578125 540.441406 319.300781 540.441406 319.300781 L 576.894531 219.132812 Z M 532.890625 740.167969 L 879.746094 738.855469 C 879.746094 738.855469 894.105469 542.582031 697.574219 548.777344 C 501.046875 554.949219 532.890625 740.1875 532.890625 740.1875 Z M 633.121094 595.570312 C 633.269531 601.914062 635.027344 604.15625 641.582031 603.988281 C 682.222656 602.953125 722.867188 602.191406 763.507812 601.554688 C 771.121094 601.429688 773.761719 598.320312 773.59375 590.792969 C 773.402344 581.785156 771.4375 572.289062 777.378906 564.066406 C 769.9375 558.375 761.222656 555.078125 752.238281 553.976562 C 746.464844 553.28125 738.894531 551.460938 734.558594 557.277344 C 717.21875 580.558594 689.941406 584.132812 669.808594 563.664062 C 661.203125 554.910156 653.65625 554.335938 643.78125 558.628906 C 639.023438 560.703125 634.160156 562.542969 629.335938 564.488281 C 637.519531 573.980469 632.890625 585.167969 633.121094 595.59375 Z M 677.675781 551.1875 C 683.472656 559.371094 692.414062 562.902344 702.585938 562.371094 C 711.933594 561.886719 719.101562 557.171875 722.589844 548.777344 C 726.417969 539.578125 723.4375 536.066406 713.75 536.152344 C 704.59375 536.238281 695.4375 536.152344 686.28125 536.152344 C 679.472656 534.332031 673.300781 544.96875 677.675781 551.164062 Z M 677.675781 551.1875 " fill-opacity="1" fill-rule="nonzero"/></g><g clip-path="url(#512dcc81f3)"><path fill="#000000" d="M 808.84375 585.886719 C 799.179688 577.40625 788.945312 569.796875 777.378906 564.066406 C 770.84375 564.277344 765.582031 560.386719 759.722656 558.460938 C 748.894531 554.910156 739.804688 555.480469 731.367188 564.972656 C 715.464844 582.90625 689.707031 584.9375 671.460938 568.292969 C 660.65625 558.417969 651.054688 557.023438 638.8125 562.773438 C 635.890625 564.148438 632.785156 565.523438 629.335938 564.464844 C 616.585938 569.921875 606.4375 579.058594 596.117188 587.960938 C 567.316406 617.351562 548.011719 651.652344 542.617188 692.949219 C 540.96875 705.636719 539.761719 718.386719 538.683594 731.136719 C 538.28125 735.789062 537.734375 740.0625 532.085938 740.230469 C 526.082031 740.421875 524.304688 736.214844 524.433594 731.03125 C 526.273438 658.566406 551.183594 597.769531 613.625 556.347656 C 626.566406 547.761719 641.515625 543.679688 656.65625 540.824219 C 660.230469 540.148438 663.402344 540.996094 663.761719 535.476562 C 664.144531 529.933594 660.570312 529.871094 657.269531 528.921875 C 621.535156 518.515625 591.296875 500.140625 569.917969 468.84375 C 561.671875 456.792969 556.40625 443.46875 552.851562 429.40625 C 551.648438 424.609375 552.746094 420.589844 557.738281 419.152344 C 562.855469 417.671875 565.433594 420.589844 566.746094 425.515625 C 581.589844 480.875 622.273438 507.605469 674.589844 517.902344 C 730.476562 528.921875 782.265625 517.375 826.269531 479.226562 C 844.265625 463.621094 856.804688 444.273438 862.640625 420.824219 C 864.414062 413.675781 867.652344 407.988281 876.257812 414.265625 C 878.902344 415.640625 880.296875 418.15625 879.660156 420.738281 C 875.664062 437.167969 871.773438 453.703125 858.136719 465.484375 C 829.90625 503.585938 791.144531 524.121094 745.386719 532.960938 C 743.484375 533.320312 741.515625 533.59375 739.761719 534.355469 C 738.070312 535.09375 737.792969 536.933594 738.070312 538.605469 C 738.492188 541.015625 740.289062 540.421875 741.832031 540 C 755.769531 536.152344 767.757812 542.453125 779.28125 548.332031 C 798.652344 558.1875 816.117188 571.148438 832.167969 585.800781 C 860.652344 611.789062 873.148438 645.898438 879.914062 682.628906 C 882.644531 697.453125 885.285156 712.339844 885.921875 727.457031 C 886.152344 733.0625 885.773438 739.027344 878.6875 739.027344 C 872.238281 739.027344 872.027344 733.167969 871.5625 728.070312 C 868.414062 694.367188 863.886719 661.019531 848.070312 630.316406 C 838.703125 612.148438 825.929688 597.15625 808.84375 585.886719 Z M 677.675781 551.1875 C 683.472656 559.371094 692.414062 562.902344 702.585938 562.371094 C 711.933594 561.886719 719.101562 557.171875 722.589844 548.777344 C 726.417969 539.578125 723.4375 536.066406 713.75 536.152344 C 704.59375 536.238281 695.4375 536.152344 686.28125 536.152344 C 679.472656 534.332031 673.300781 544.96875 677.675781 551.164062 Z M 677.675781 551.1875 " fill-opacity="1" fill-rule="nonzero"/></g><path fill="#000000" d="M 918.78125 325.664062 C 910.851562 327.421875 903.726562 330.785156 896.496094 334.675781 C 884.566406 341.058594 872.515625 337.992188 862.9375 328.945312 C 853.820312 320.335938 843.480469 313.378906 833.859375 305.472656 C 815.144531 290.078125 805.96875 268.570312 796.875 247.066406 C 794.71875 241.949219 792.835938 236.621094 791.546875 231.226562 C 790.214844 225.6875 788.183594 224.230469 782.707031 226.957031 C 752.320312 241.992188 719.039062 246.433594 686.28125 252.628906 C 670.464844 255.628906 654.4375 256.160156 638.367188 256.816406 C 609.460938 257.976562 589.625 273.710938 575.878906 298.238281 C 574.757812 300.25 573.640625 302.257812 572.476562 304.246094 C 558.011719 328.753906 556.066406 329.621094 527.476562 325.917969 C 522.613281 325.285156 517.644531 325.519531 512.71875 325.347656 C 516.460938 316.488281 523.753906 319.597656 530.269531 320.167969 C 533.820312 320.484375 538.855469 324.757812 540.398438 319.34375 C 542.066406 313.507812 535.9375 312.113281 531.601562 311.140625 C 524.09375 309.445312 516.671875 310.378906 509.503906 313.378906 C 506.269531 314.734375 503.203125 317.082031 499.3125 315.980469 C 487.171875 299.023438 488.613281 280.074219 491.996094 261.191406 C 501.871094 206.191406 534.792969 165.527344 575.691406 130.554688 C 615.234375 96.71875 661.964844 78.28125 713.433594 73.796875 C 744.351562 71.113281 776.40625 69.460938 804.042969 87.796875 C 816.035156 95.746094 826.753906 102.554688 842 104.375 C 860.777344 106.617188 874.566406 120.847656 886.726562 134.71875 C 922.230469 175.191406 940.753906 222.410156 941.089844 276.523438 C 941.175781 290.648438 938.109375 303.800781 930.878906 315.960938 C 927.496094 316.59375 925.378906 314.289062 923.097656 312.535156 C 910.175781 302.660156 896.304688 303.632812 882.136719 309.046875 C 879.15625 310.1875 875.136719 311.878906 876.363281 315.75 C 877.695312 319.933594 881.902344 318.265625 884.863281 317.355469 C 892.203125 315.09375 899.730469 314.246094 907.171875 315.601562 C 912.609375 316.59375 918.929688 317.714844 918.738281 325.664062 Z M 776.851562 545.816406 C 773.214844 546.261719 770.632812 566.878906 770.359375 576.816406 C 770 590.773438 768.6875 593.394531 758.285156 593.011719 C 722.167969 591.660156 686.175781 596.882812 650.082031 595.890625 C 636.632812 595.507812 637.5625 555.945312 631.558594 547.886719 C 625.363281 540.804688 600.496094 560.640625 597.894531 565.796875 C 594.339844 572.882812 597.746094 612.976562 597.746094 621.558594 C 597.765625 635.304688 597.746094 649.027344 597.574219 662.773438 C 597.28125 690.601562 595.335938 739.957031 595.335938 739.957031 L 811.402344 739.132812 C 811.402344 739.132812 811.359375 609.738281 811.402344 568.546875 C 799.390625 554.84375 780.445312 545.394531 776.808594 545.835938 Z M 867.628906 477.8125 C 874.503906 496.101562 875.984375 515.492188 877.652344 534.714844 C 881.207031 575.398438 901.886719 606.167969 932.675781 630.949219 C 943.332031 639.511719 956.292969 634.394531 958.261719 621.898438 C 959.234375 615.640625 955.722656 611.367188 951.75 607.222656 C 940.097656 595.105469 934.261719 581.257812 934.515625 563.8125 C 934.917969 537.632812 942.929688 512.808594 945.679688 487.09375 C 948.492188 460.808594 944.75 436.386719 931.933594 413.0625 C 927.769531 405.46875 919.882812 400.925781 917.132812 392.550781 C 915.125 390.753906 912.753906 391.195312 910.683594 392.023438 C 902.625 395.234375 894.316406 395.300781 885.898438 394.390625 C 881.375 400.375 882.136719 408.9375 876.257812 414.265625 C 877.546875 417.714844 877.484375 421.011719 876.597656 424.714844 C 873.085938 439.558594 866.066406 452.710938 858.113281 465.503906 C 865.410156 466.390625 865.789062 473.011719 867.609375 477.832031 Z M 867.628906 477.8125 " fill-opacity="1" fill-rule="nonzero"/><g clip-path="url(#2eef1cc8bf)"><path fill="#000000" d="M 499.332031 315.960938 C 510.414062 308.726562 522.0625 304.6875 535.363281 309.277344 C 538.199219 310.25 540.863281 311.414062 542.894531 313.65625 C 545.304688 316.320312 546.042969 319.429688 544.140625 322.621094 C 541.816406 326.492188 538.21875 326.40625 534.6875 324.757812 C 527.222656 321.269531 519.90625 319.703125 512.71875 325.328125 C 498.972656 334.335938 491.804688 352.648438 495.96875 368.167969 C 500.050781 383.414062 512.507812 392 531.15625 392.445312 C 534.433594 392.527344 537.734375 392.359375 541.011719 392.445312 C 545.027344 392.550781 548.011719 394.074219 548.558594 398.554688 C 549.132812 403.144531 546.191406 405.683594 542.492188 406.148438 C 511.554688 409.996094 482.203125 396.992188 480.933594 359.921875 C 480.34375 342.539062 486.917969 327.992188 499.3125 315.960938 Z M 936.375 369.820312 C 944.496094 350.789062 941.261719 333.046875 930.898438 315.960938 C 929.441406 314.648438 927.960938 313.378906 926.542969 312.046875 C 911.699219 298.21875 891.082031 300.988281 877.019531 308.496094 C 872.917969 310.671875 870.273438 314.226562 872.875 319.046875 C 875.265625 323.488281 879.367188 322.707031 883.257812 321.269531 C 885.097656 320.589844 886.789062 319.511719 888.628906 318.855469 C 900.976562 314.542969 910.851562 316.804688 918.761719 325.6875 C 935.761719 348.335938 924.554688 378.003906 896.855469 383.226562 C 890.363281 384.453125 884.230469 385.402344 885.878906 394.367188 C 889.898438 397.625 894.125 399.148438 899.414062 397.371094 C 905.207031 395.449219 911.191406 394.113281 917.089844 392.527344 C 925.546875 386.671875 932.253906 379.417969 936.355469 369.796875 Z M 733.671875 385.804688 C 738.683594 379.671875 737.773438 372.695312 731.746094 371.785156 C 727.707031 371.171875 725.277344 373.921875 722.546875 376.4375 C 704.765625 392.824219 686.707031 394.113281 668.078125 380.433594 C 664.734375 377.980469 661.183594 377.136719 658.328125 380.136719 C 654.480469 384.199219 655.726562 388.785156 659.300781 392.402344 C 667.589844 400.753906 677.992188 404.179688 687.023438 404.519531 C 703.769531 404.75 725.824219 395.382812 733.648438 385.804688 Z M 682.03125 362.144531 C 686.390625 362.820312 689.433594 360.070312 690.238281 355.566406 C 691.359375 349.457031 693.070312 343.578125 695.714844 337.929688 C 697.554688 334.039062 697.703125 329.957031 693.261719 327.824219 C 688.671875 325.625 684.824219 327.824219 682.605469 331.945312 C 679.050781 338.585938 677.019531 345.777344 676.152344 353.242188 C 675.816406 357.765625 677.570312 361.445312 681.992188 362.144531 Z M 740.964844 308.179688 C 745.363281 309.511719 748.601562 307.605469 750.25 303.398438 C 752.152344 298.597656 753.695312 293.652344 755.664062 288.871094 C 757.503906 284.410156 757.628906 280.285156 752.574219 278.339844 C 748.027344 276.585938 743.96875 278.574219 742.109375 282.953125 C 739.824219 288.300781 738.34375 293.988281 736.527344 299.488281 C 736.335938 303.316406 736.757812 306.910156 740.945312 308.179688 Z M 652.789062 310.84375 C 657.949219 311.773438 660.378906 308.515625 661.5 303.738281 C 662.472656 299.65625 663.277344 295.574219 665.199219 291.664062 C 667.378906 287.222656 665.328125 283.226562 660.84375 281.28125 C 656.402344 279.355469 652.808594 281.808594 651.265625 285.636719 C 649.191406 290.734375 648.242188 296.273438 647.121094 300.523438 C 647.3125 305.875 648.09375 309.996094 652.808594 310.863281 Z M 808.019531 156.074219 C 803.347656 155.292969 800.28125 158.105469 799.203125 162.1875 C 794.761719 178.976562 782.6875 190.101562 770.804688 201.414062 C 763.929688 207.96875 756.929688 214.417969 750.015625 220.929688 C 746.507812 224.25 743.207031 228.226562 747.054688 232.773438 C 751.265625 237.742188 755.917969 235.183594 759.808594 231.546875 C 772.769531 219.492188 786.070312 207.800781 797.785156 194.5 C 805.460938 185.765625 810.832031 175.71875 813.304688 164.027344 C 813.390625 160.261719 812.398438 156.816406 808 156.074219 Z M 671.628906 233.871094 C 689.816406 219.472656 703.304688 200.90625 717.367188 182.785156 C 720.539062 178.703125 724.621094 174.960938 719.398438 170.328125 C 714.640625 166.121094 709.671875 168.976562 706.625 172.972656 C 691.738281 192.53125 677.019531 212.195312 657.101562 227.148438 C 654.542969 229.070312 654.015625 232.203125 655.175781 235.226562 C 656.214844 237.933594 658.433594 239.199219 661.375 239.074219 C 665.730469 239.199219 668.605469 236.28125 671.648438 233.871094 Z M 603.117188 233.238281 C 618.234375 219.578125 632.042969 204.734375 643.273438 187.625 C 646.253906 183.078125 648.113281 178.238281 642.765625 174.8125 C 637.371094 171.363281 633.800781 175.148438 630.902344 179.738281 C 622.824219 192.550781 612.929688 203.90625 602.058594 214.417969 C 598.527344 217.820312 595.015625 221.246094 591.804688 224.949219 C 589.710938 227.378906 589.667969 230.320312 591.445312 233.175781 C 592.777344 235.332031 594.679688 236.324219 598 236.347656 C 599.289062 235.5625 601.488281 234.71875 603.117188 233.238281 Z M 603.117188 233.238281 " fill-opacity="1" fill-rule="nonzero"/></g><g clip-path="url(#26bd15ab0b)"><path fill="#f9f4ef" d="M 576.875 219.152344 L 795.140625 205.09375 C 795.140625 205.09375 918.632812 317.949219 931.976562 329.957031 C 945.320312 341.96875 930.644531 361.339844 923.960938 377.347656 C 917.28125 393.355469 885.878906 394.347656 885.878906 394.347656 C 885.878906 394.347656 887.359375 405.28125 879.640625 420.695312 C 874.269531 431.417969 860.820312 444.464844 854.539062 456.769531 C 839.1875 486.820312 824.152344 499.695312 736.503906 525.515625 C 648.855469 551.335938 572.855469 460.089844 572.855469 460.089844 L 542.511719 406.105469 C 542.511719 406.105469 560.191406 402.679688 520.605469 394.6875 C 481.019531 386.691406 493.433594 341.292969 500.792969 326.933594 C 508.148438 312.578125 540.441406 319.300781 540.441406 319.300781 L 576.894531 219.132812 Z M 532.890625 740.167969 L 879.746094 738.855469 C 879.746094 738.855469 894.105469 542.582031 697.574219 548.777344 C 501.046875 554.949219 532.890625 740.1875 532.890625 740.1875 Z M 633.121094 595.570312 C 633.269531 601.914062 635.027344 604.15625 641.582031 603.988281 C 682.222656 602.953125 722.867188 602.191406 763.507812 601.554688 C 771.121094 601.429688 773.761719 598.320312 773.59375 590.792969 C 773.402344 581.785156 771.4375 572.289062 777.378906 564.066406 C 769.9375 558.375 761.222656 555.078125 752.238281 553.976562 C 746.464844 553.28125 738.894531 551.460938 734.558594 557.277344 C 717.21875 580.558594 689.941406 584.132812 669.808594 563.664062 C 661.203125 554.910156 653.65625 554.335938 643.78125 558.628906 C 639.023438 560.703125 634.160156 562.542969 629.335938 564.488281 C 637.519531 573.980469 632.890625 585.167969 633.121094 595.59375 Z M 677.675781 551.1875 C 683.472656 559.371094 692.414062 562.902344 702.585938 562.371094 C 711.933594 561.886719 719.101562 557.171875 722.589844 548.777344 C 726.417969 539.578125 723.4375 536.066406 713.75 536.152344 C 704.59375 536.238281 695.4375 536.152344 686.28125 536.152344 C 679.472656 534.332031 673.300781 544.96875 677.675781 551.164062 Z M 677.675781 551.1875 " fill-opacity="1" fill-rule="nonzero"/><path fill="#000000" d="M 808.84375 585.886719 C 799.179688 577.40625 788.945312 569.796875 777.378906 564.066406 C 770.84375 564.277344 765.582031 560.386719 759.722656 558.460938 C 748.894531 554.910156 739.804688 555.480469 731.367188 564.972656 C 715.464844 582.90625 689.707031 584.9375 671.460938 568.292969 C 660.65625 558.417969 651.054688 557.023438 638.8125 562.773438 C 635.890625 564.148438 632.785156 565.523438 629.335938 564.464844 C 616.585938 569.921875 606.4375 579.058594 596.117188 587.960938 C 567.316406 617.351562 548.011719 651.652344 542.617188 692.949219 C 540.96875 705.636719 539.761719 718.386719 538.683594 731.136719 C 538.28125 735.789062 537.734375 740.0625 532.085938 740.230469 C 526.082031 740.421875 524.304688 736.214844 524.433594 731.03125 C 526.273438 658.566406 551.183594 597.769531 613.625 556.347656 C 626.566406 547.761719 641.515625 543.679688 656.65625 540.824219 C 660.230469 540.148438 663.402344 540.996094 663.761719 535.476562 C 664.144531 529.933594 660.570312 529.871094 657.269531 528.921875 C 621.535156 518.515625 591.296875 500.140625 569.917969 468.84375 C 561.671875 456.792969 556.40625 443.46875 552.851562 429.40625 C 551.648438 424.609375 552.746094 420.589844 557.738281 419.152344 C 562.855469 417.671875 565.433594 420.589844 566.746094 425.515625 C 581.589844 480.875 622.273438 507.605469 674.589844 517.902344 C 730.476562 528.921875 782.265625 517.375 826.269531 479.226562 C 844.265625 463.621094 856.804688 444.273438 862.640625 420.824219 C 864.414062 413.675781 867.652344 407.988281 876.257812 414.265625 C 878.902344 415.640625 880.296875 418.15625 879.660156 420.738281 C 875.664062 437.167969 871.773438 453.703125 858.136719 465.484375 C 829.90625 503.585938 791.144531 524.121094 745.386719 532.957031 C 743.484375 533.320312 741.515625 533.59375 739.761719 534.355469 C 738.070312 535.09375 737.792969 536.933594 738.070312 538.605469 C 738.492188 541.015625 740.289062 540.421875 741.832031 540 C 755.769531 536.152344 767.757812 542.453125 779.28125 548.332031 C 798.652344 558.1875 816.117188 571.148438 832.167969 585.800781 C 860.652344 611.789062 873.148438 645.898438 879.914062 682.628906 C 882.644531 697.453125 885.285156 712.339844 885.921875 727.457031 C 886.152344 733.0625 885.773438 739.027344 878.6875 739.027344 C 872.238281 739.027344 872.027344 733.167969 871.5625 728.070312 C 868.414062 694.367188 863.886719 661.019531 848.070312 630.316406 C 838.703125 612.148438 825.929688 597.15625 808.84375 585.886719 Z M 677.675781 551.1875 C 683.472656 559.371094 692.414062 562.902344 702.585938 562.371094 C 711.933594 561.886719 719.101562 557.171875 722.589844 548.777344 C 726.417969 539.578125 723.4375 536.066406 713.75 536.152344 C 704.59375 536.238281 695.4375 536.152344 686.28125 536.152344 C 679.472656 534.332031 673.300781 544.96875 677.675781 551.164062 Z M 677.675781 551.1875 " fill-opacity="1" fill-rule="nonzero"/></g><g clip-path="url(#56b822bcea)"><path fill="#005043" d="M 918.78125 325.664062 C 910.851562 327.421875 903.726562 330.785156 896.496094 334.675781 C 884.566406 341.058594 872.515625 337.992188 862.9375 328.945312 C 853.820312 320.335938 843.480469 313.378906 833.859375 305.472656 C 815.144531 290.078125 805.96875 268.570312 796.875 247.066406 C 794.71875 241.949219 792.835938 236.621094 791.546875 231.226562 C 790.214844 225.6875 788.183594 224.230469 782.707031 226.957031 C 752.320312 241.992188 719.039062 246.433594 686.28125 252.628906 C 670.464844 255.628906 654.4375 256.160156 638.367188 256.816406 C 609.460938 257.976562 589.625 273.710938 575.878906 298.238281 C 574.757812 300.25 573.640625 302.257812 572.476562 304.246094 C 558.011719 328.753906 556.066406 329.621094 527.476562 325.917969 C 522.613281 325.285156 517.644531 325.519531 512.71875 325.347656 C 516.460938 316.488281 523.753906 319.597656 530.269531 320.167969 C 533.820312 320.484375 538.855469 324.757812 540.398438 319.34375 C 542.066406 313.507812 535.9375 312.113281 531.601562 311.140625 C 524.09375 309.445312 516.671875 310.378906 509.503906 313.378906 C 506.269531 314.734375 503.203125 317.082031 499.3125 315.980469 C 487.171875 299.023438 488.613281 280.074219 491.996094 261.191406 C 501.871094 206.191406 534.792969 165.527344 575.691406 130.554688 C 615.234375 96.71875 661.964844 78.28125 713.433594 73.796875 C 744.351562 71.113281 776.40625 69.460938 804.042969 87.796875 C 816.035156 95.746094 826.753906 102.554688 842 104.375 C 860.777344 106.617188 874.566406 120.847656 886.726562 134.71875 C 922.230469 175.191406 940.753906 222.410156 941.089844 276.523438 C 941.175781 290.648438 938.109375 303.800781 930.878906 315.960938 C 927.496094 316.59375 925.378906 314.289062 923.097656 312.535156 C 910.175781 302.660156 896.304688 303.632812 882.136719 309.046875 C 879.15625 310.1875 875.136719 311.878906 876.363281 315.75 C 877.695312 319.933594 881.902344 318.265625 884.863281 317.355469 C 892.203125 315.09375 899.730469 314.246094 907.171875 315.601562 C 912.609375 316.59375 918.929688 317.714844 918.738281 325.664062 Z M 776.851562 545.816406 C 773.214844 546.261719 770.632812 566.878906 770.359375 576.816406 C 770 590.773438 768.6875 593.394531 758.285156 593.011719 C 722.167969 591.660156 686.175781 596.882812 650.082031 595.890625 C 636.632812 595.507812 637.5625 555.945312 631.558594 547.886719 C 625.363281 540.804688 600.496094 560.640625 597.894531 565.796875 C 594.339844 572.882812 597.746094 612.976562 597.746094 621.558594 C 597.765625 635.304688 597.746094 649.027344 597.574219 662.773438 C 597.28125 690.601562 595.335938 739.957031 595.335938 739.957031 L 811.402344 739.132812 C 811.402344 739.132812 811.359375 609.738281 811.402344 568.546875 C 799.390625 554.84375 780.445312 545.394531 776.808594 545.835938 Z M 867.628906 477.8125 C 874.503906 496.101562 875.984375 515.492188 877.652344 534.714844 C 881.207031 575.398438 901.886719 606.167969 932.675781 630.949219 C 943.332031 639.511719 956.292969 634.394531 958.261719 621.898438 C 959.234375 615.640625 955.722656 611.367188 951.75 607.222656 C 940.097656 595.105469 934.261719 581.257812 934.515625 563.8125 C 934.917969 537.632812 942.929688 512.808594 945.679688 487.09375 C 948.492188 460.808594 944.75 436.386719 931.933594 413.0625 C 927.769531 405.46875 919.882812 400.925781 917.132812 392.550781 C 915.125 390.753906 912.753906 391.195312 910.683594 392.023438 C 902.625 395.234375 894.316406 395.300781 885.898438 394.390625 C 881.375 400.375 882.136719 408.9375 876.257812 414.265625 C 877.546875 417.714844 877.484375 421.011719 876.597656 424.714844 C 873.085938 439.558594 866.066406 452.710938 858.113281 465.503906 C 865.410156 466.390625 865.789062 473.011719 867.609375 477.832031 Z M 867.628906 477.8125 " fill-opacity="1" fill-rule="nonzero"/></g></svg>