<svg width="129" height="129" viewBox="0 0 129 129" fill="none" xmlns="http://www.w3.org/2000/svg">
<path d="M24.8083 81.2539C37.5632 77.6177 49.329 77.3651 58.7541 85.1266M24.8083 73.2505C37.5632 69.6143 49.329 69.359 58.7541 77.1205M24.8083 65.4594C37.5632 61.8233 49.329 61.5679 58.7541 69.3294M24.8083 57.0906C37.5632 53.4544 49.329 53.1991 58.7541 60.9606M24.8083 48.9286C37.5632 45.2951 49.329 45.0398 58.7541 52.8013" stroke="#176038" stroke-width="3" stroke-linecap="round" stroke-linejoin="round"/>
<path d="M14.7812 25.9263L15.0957 102.856C33.6099 95.0354 50.2132 96.0244 64.5511 107.462C79.7542 98.6823 95.6589 93.998 113.904 102.961L114.219 26.7621C98.8274 20.7314 82.0682 17.7133 64.5538 30.2155C50.6701 19.874 32.3441 19.5327 14.7812 25.9263Z" stroke="#176038" stroke-width="5" stroke-linecap="round" stroke-linejoin="round"/>
<path d="M24.8083 41.3123C37.5632 37.6761 49.329 37.4208 58.7541 45.1823M71.1838 64.5269C70.9768 71.8638 75.5563 76.9861 82.5707 80.9798L97.2982 79.2141C106.546 72.5759 106.463 66.2039 106.175 59.8372L71.1838 64.5269ZM75.0484 43.9299L71.079 54.868C75.7418 55.1421 80.6626 53.0916 84.8148 57.9533L87.6367 50.4713C81.1007 51.0195 78.3057 46.7195 75.0484 43.9299Z" stroke="#176038" stroke-width="3" stroke-linecap="round" stroke-linejoin="round"/>
</svg>
